<svg width="27" height="18" viewBox="0 0 27 18" fill="none" xmlns="http://www.w3.org/2000/svg">
<path d="M12.7333 1H5.26667C2.91025 1 1 2.91025 1 5.26667V12.7333C1 15.0897 2.91025 17 5.26667 17H12.7333C15.0897 17 17 15.0897 17 12.7333V5.26667C17 2.91025 15.0897 1 12.7333 1Z" stroke="white" stroke-linecap="round" stroke-linejoin="round"/>
<path d="M15.8085 15.6837C15.7242 15.1428 15.5633 14.6166 15.3307 14.121C14.904 13.2677 13.1301 12.681 10.9008 11.8565C10.2981 11.6325 10.3973 10.0592 10.664 9.76477C11.089 9.30417 11.4118 8.75891 11.6113 8.16478C11.8107 7.57064 11.8823 6.94105 11.8213 6.3173C11.8595 5.92003 11.8155 5.51914 11.692 5.13963C11.5685 4.76011 11.3682 4.4101 11.1035 4.11139C10.8388 3.81268 10.5154 3.57168 10.1536 3.4034C9.79166 3.23513 9.39898 3.14319 9 3.1333C8.60102 3.14319 8.20834 3.23513 7.84645 3.4034C7.48455 3.57168 7.16119 3.81268 6.8965 4.11139C6.63182 4.4101 6.43149 4.76011 6.30799 5.13963C6.18449 5.51914 6.14046 5.92003 6.17867 6.3173C6.11769 6.94105 6.18927 7.57064 6.38873 8.16478C6.58818 8.75891 6.911 9.30417 7.336 9.76477C7.60267 10.0592 7.70187 11.6325 7.0992 11.8565C4.86987 12.681 3.09493 13.2666 2.66933 14.12C2.43667 14.6155 2.27577 15.1417 2.19147 15.6826" stroke="white" stroke-linecap="round" stroke-linejoin="round"/>
<path d="M18.0667 16.8473C18.9797 16.6115 19.7889 16.08 20.3679 15.3356C20.9468 14.5913 21.2629 13.6761 21.2667 12.7331V5.26648C21.2618 4.32378 20.9453 3.40915 20.3665 2.66503C19.7878 1.9209 18.9792 1.38907 18.0667 1.15234" stroke="white" stroke-linecap="round" stroke-linejoin="round"/>
<path d="M22.3333 16.8473C23.2464 16.6115 24.0556 16.08 24.6345 15.3356C25.2135 14.5913 25.5295 13.6761 25.5333 12.7331V5.26648C25.5285 4.32378 25.212 3.40915 24.6332 2.66503C24.0544 1.9209 23.2458 1.38907 22.3333 1.15234" stroke="white" stroke-linecap="round" stroke-linejoin="round"/>
</svg>
