<svg width="178" height="45" viewBox="0 0 178 45" fill="none" xmlns="http://www.w3.org/2000/svg">
<path d="M70.5775 25.4188H77.7482C77.5051 26.2701 77.019 26.9998 76.4113 27.6079C75.6821 28.3377 74.8313 28.9458 73.7375 29.3107C72.6436 29.6755 71.4282 29.9188 70.0913 29.9188C68.2683 29.9188 66.8098 29.6755 65.5944 29.0674C64.3791 28.4593 63.5283 27.6079 62.9206 26.5134C62.3129 25.4188 62.0699 24.0809 62.0699 22.6215C62.0699 21.0404 62.4345 19.7025 63.0422 18.6079C63.7714 17.3917 64.7437 16.5404 65.9591 15.9323C67.1744 15.3242 68.7544 14.9593 70.4559 14.9593C71.7929 14.9593 72.8867 15.2025 73.859 15.5674C74.8313 15.9323 75.6821 16.4187 76.2897 17.1485C76.8974 17.7566 77.3836 18.6079 77.6267 19.5809H81.1512C81.0297 17.9998 80.5436 16.662 79.5713 15.4458C78.599 14.3512 77.3836 13.3782 75.9251 12.7701C74.3451 12.162 72.5221 11.7971 70.4559 11.7971C68.6329 11.7971 66.9314 12.0404 65.4729 12.5269C64.0145 13.0133 62.6775 13.7431 61.5837 14.716C60.4899 15.689 59.6391 16.7836 59.0314 18.1215C58.4237 19.4593 58.1807 21.0404 58.1807 22.7431C58.1807 24.4458 58.4237 25.9052 59.0314 27.2431C59.6391 28.5809 60.3683 29.6755 61.4622 30.6485C62.556 31.6215 63.7714 32.2296 65.2298 32.7161C66.6883 33.2026 68.2683 33.4458 70.0913 33.4458C72.7652 33.4458 74.9528 32.7161 76.6544 31.2566C77.8697 30.162 78.7205 28.7025 79.2066 26.9998C79.2066 27.3647 79.0851 27.7296 79.0851 28.0944C78.9636 28.9458 78.842 29.9188 78.842 30.7701C78.599 31.4998 78.599 32.2296 78.599 32.9593H81.8805V22.8647H70.4559V25.4188H70.5775Z" fill="#E8E9F0"/>
<path d="M91.239 18.3649C90.7529 18.973 90.3882 19.4595 90.1452 20.0676C89.9021 20.5541 89.659 21.1622 89.5375 21.5271V16.7838H85.8914V32.8379H89.5375V23.9595C89.7806 23.473 90.0236 22.9865 90.3882 22.3784C90.8744 21.6487 91.6036 21.0406 92.3328 20.5541C93.1836 20.0676 94.1559 19.8244 95.3713 19.8244V16.4189C94.399 16.4189 93.6698 16.5406 92.9405 16.9054C92.3328 17.3919 91.7252 17.8784 91.239 18.3649Z" fill="#E8E9F0"/>
<path d="M112.144 21.6486C112.022 21.2838 112.022 21.0405 111.901 20.6757C111.414 19.4594 110.685 18.3649 109.713 17.6351C108.741 16.9054 107.282 16.5405 105.581 16.5405C104.001 16.5405 102.542 16.9054 101.327 17.6351C100.111 18.3649 99.0176 19.3378 98.2884 20.554C97.5592 21.7703 97.1946 23.2297 97.1946 24.9324C97.1946 26.5135 97.5592 27.973 98.2884 29.3108C99.0176 30.527 99.9899 31.5 101.205 32.2297C102.421 32.9595 103.758 33.3243 105.216 33.3243C106.553 33.3243 107.647 33.0811 108.619 32.5946C109.591 32.1081 110.321 31.3784 110.807 30.527C111.414 29.6757 111.779 28.8243 112.022 27.8514V29.1892C112.022 29.6757 112.022 30.2838 112.144 30.8919C112.144 31.5 112.265 32.2297 112.387 32.9595H115.79V16.9054H112.144V21.6486ZM111.414 27.7297C110.928 28.5811 110.321 29.1892 109.47 29.6757C108.619 30.1622 107.525 30.4054 106.431 30.4054C105.338 30.4054 104.365 30.1622 103.636 29.6757C102.785 29.1892 102.178 28.5811 101.691 27.7297C101.205 26.8784 100.962 26.027 100.962 24.9324C100.962 23.3513 101.448 22.0135 102.421 21.0405C103.393 20.0676 104.73 19.5811 106.431 19.5811C107.647 19.5811 108.619 19.8243 109.47 20.1892C110.321 20.6757 110.928 21.2838 111.414 22.0135C111.901 22.8649 112.144 23.8378 112.144 24.9324C112.144 25.9054 111.901 26.8784 111.414 27.7297Z" fill="#E8E9F0"/>
<path d="M126.971 28.8242L122.231 16.9053H118.22L125.269 32.9594H128.794L135.843 16.9053H131.954L126.971 28.8242Z" fill="#E8E9F0"/>
<path d="M142.771 10.0945H138.396V13.6215H142.771V10.0945Z" fill="#E8E9F0"/>
<path d="M142.285 16.9053H138.639V32.9594H142.285V16.9053Z" fill="#E8E9F0"/>
<path d="M152.98 12.5269H149.334V16.9052H145.445V19.8242H149.334V32.9593H152.98V19.8242H156.869V16.9052H152.98V12.5269Z" fill="#E8E9F0"/>
<path d="M173.52 16.9054V21.6486C173.398 21.2838 173.398 21.0405 173.277 20.6757C172.79 19.4594 172.061 18.3649 171.089 17.6351C170.117 16.9054 168.658 16.5405 166.957 16.5405C165.377 16.5405 163.918 16.9054 162.703 17.6351C161.487 18.3649 160.394 19.3378 159.664 20.554C158.935 21.7703 158.571 23.2297 158.571 24.9324C158.571 26.5135 158.935 27.973 159.664 29.3108C160.394 30.527 161.366 31.5 162.581 32.2297C163.797 32.9595 165.134 33.3243 166.592 33.3243C167.929 33.3243 169.023 33.0811 169.995 32.5946C170.967 32.1081 171.697 31.3784 172.183 30.527C172.79 29.6757 173.155 28.8243 173.398 27.8514V29.1892C173.398 29.6757 173.398 30.2838 173.52 30.8919C173.52 31.5 173.641 32.2297 173.763 32.9595H177.166V16.9054H173.52ZM172.79 27.7297C172.304 28.5811 171.697 29.1892 170.846 29.6757C169.995 30.1622 168.901 30.4054 167.807 30.4054C166.714 30.4054 165.741 30.1622 165.012 29.6757C164.161 29.1892 163.554 28.5811 163.067 27.7297C162.581 26.8784 162.338 26.027 162.338 24.9324C162.338 23.3513 162.824 22.0135 163.797 21.0405C164.769 20.0676 166.106 19.5811 167.807 19.5811C169.023 19.5811 169.995 19.8243 170.846 20.1892C171.697 20.6757 172.304 21.2838 172.79 22.0135C173.277 22.8649 173.52 23.8378 173.52 24.9324C173.52 25.9054 173.277 26.8784 172.79 27.7297Z" fill="#E8E9F0"/>
<path d="M35.3672 24.8106V20.189H27.9535L33.1796 14.9593L29.8981 11.6755L24.7935 16.9052V9.60791H20.1751V16.9052L14.949 11.6755L11.6675 14.9593L16.8936 20.189H9.60132V24.8106H16.8936L11.6675 29.9187L14.949 33.2025L20.1751 27.9728V35.3917H24.7935V27.9728L29.8981 33.2025L33.1796 29.9187L27.9535 24.8106H35.3672Z" fill="#E8E9F0"/>
<path d="M24.7935 0H20.175V4.62163H24.7935V0Z" fill="#E8E9F0"/>
<path d="M36.7562 4.98644L33.4905 8.25439L36.7562 11.5223L40.0218 8.25439L36.7562 4.98644Z" fill="#E8E9F0"/>
<path d="M44.9688 20.1892H40.3503V24.8108H44.9688V20.1892Z" fill="#E8E9F0"/>
<path d="M36.701 33.4691L33.4353 36.7371L36.701 40.005L39.9667 36.7371L36.701 33.4691Z" fill="#E8E9F0"/>
<path d="M24.7935 40.3784H20.175V45H24.7935V40.3784Z" fill="#E8E9F0"/>
<path d="M8.23858 33.4137L4.9729 36.6816L8.23858 39.9496L11.5043 36.6816L8.23858 33.4137Z" fill="#E8E9F0"/>
<path d="M4.61842 20.1892H0V24.8108H4.61842V20.1892Z" fill="#E8E9F0"/>
<path d="M8.29376 4.93127L5.02808 8.19922L8.29376 11.4672L11.5594 8.19922L8.29376 4.93127Z" fill="#E8E9F0"/>
</svg>
