<svg width="20" height="20" viewBox="0 0 20 20" fill="none" xmlns="http://www.w3.org/2000/svg">
<path d="M15.7186 11.027V8.97297H12.4236L14.7463 6.64864L13.2879 5.18918L11.0192 7.51351V4.27026H8.96653V7.51351L6.64382 5.18918L5.18537 6.64864L7.50808 8.97297H4.26709V11.027H7.50808L5.18537 13.2973L6.64382 14.7568L8.96653 12.4324V15.7297H11.0192V12.4324L13.2879 14.7568L14.7463 13.2973L12.4236 11.027H15.7186Z" fill="#A2E0D9"/>
<path d="M11.0194 0H8.9668V2.05405H11.0194V0Z" fill="#A2E0D9"/>
<path d="M16.3362 2.21616L14.8848 3.66858L16.3362 5.121L17.7876 3.66858L16.3362 2.21616Z" fill="#A2E0D9"/>
<path d="M19.9862 8.97302H17.9336V11.0271H19.9862V8.97302Z" fill="#A2E0D9"/>
<path d="M16.3118 14.8751L14.8604 16.3275L16.3118 17.7799L17.7632 16.3275L16.3118 14.8751Z" fill="#A2E0D9"/>
<path d="M11.0194 17.946H8.9668V20H11.0194V17.946Z" fill="#A2E0D9"/>
<path d="M3.66137 14.8506L2.20996 16.303L3.66137 17.7554L5.11279 16.303L3.66137 14.8506Z" fill="#A2E0D9"/>
<path d="M2.05263 8.97302H0V11.0271H2.05263V8.97302Z" fill="#A2E0D9"/>
<path d="M3.68628 2.1918L2.23486 3.64423L3.68628 5.09665L5.13769 3.64423L3.68628 2.1918Z" fill="#A2E0D9"/>
</svg>
